<?xml version="1.0" standalone="no"?><!DOCTYPE svg PUBLIC "-//W3C//DTD SVG 1.1//EN" "http://www.w3.org/Graphics/SVG/1.1/DTD/svg11.dtd"><svg t="1502956589165" class="icon" style="" viewBox="0 0 1024 1024" version="1.1" xmlns="http://www.w3.org/2000/svg" p-id="3577" xmlns:xlink="http://www.w3.org/1999/xlink" width="48" height="48"><defs><style type="text/css"></style></defs><path d="M451.050667 789.333333H597.333333v-42.666666h-170.666666v42.666666h170.666666v-42.666666h-146.282666v42.666666zM341.333333 874.666667a106.666667 106.666667 0 1 0 0-213.333334 106.666667 106.666667 0 0 0 0 213.333334z m0-42.666667a64 64 0 1 1 0-128 64 64 0 0 1 0 128z m341.333334 42.666667a106.666667 106.666667 0 1 0 0-213.333334 106.666667 106.666667 0 0 0 0 213.333334z m0-42.666667a64 64 0 1 1 0-128 64 64 0 0 1 0 128zM177.792 405.696l179.114667-84.778667V213.269333A63.957333 63.957333 0 0 1 421.056 149.333333h410.794667A64.106667 64.106667 0 0 1 896 213.184v512.298667a21.333333 21.333333 0 0 1-42.666667 0V213.184C853.333333 201.6 843.690667 192 831.850667 192H421.056a21.290667 21.290667 0 0 0-21.482667 21.269333v121.173334a21.333333 21.333333 0 0 1-12.202666 19.264l-190.421334 90.112C183.253333 451.114667 170.666667 472.021333 170.666667 487.573333v237.866667a21.333333 21.333333 0 0 1-42.666667 0v-237.866667c0-31.338667 21.290667-66.709333 49.792-81.877333zM362.666667 426.666667a21.333333 21.333333 0 0 1 42.666666 0v85.376A64 64 0 0 1 341.376 576H256a21.333333 21.333333 0 0 1 0-42.666667h85.376a21.333333 21.333333 0 0 0 21.290667-21.290666V426.666667z" fill="#999999" p-id="3578"></path></svg>