<?xml version="1.0" standalone="no"?><!DOCTYPE svg PUBLIC "-//W3C//DTD SVG 1.1//EN" "http://www.w3.org/Graphics/SVG/1.1/DTD/svg11.dtd"><svg t="1499777547313" class="icon" style="" viewBox="0 0 1024 1024" version="1.1" xmlns="http://www.w3.org/2000/svg" p-id="2042" xmlns:xlink="http://www.w3.org/1999/xlink" width="128" height="128"><defs><style type="text/css"></style></defs><path d="M246.4 912a2.1 2.1 0 1 0 134.4 0 2.1 2.1 0 1 0-134.4 0Z" p-id="2043" fill="#666666"></path><path d="M716.8 912a2.1 2.1 0 1 0 134.4 0 2.1 2.1 0 1 0-134.4 0Z" p-id="2044" fill="#666666"></path><path d="M905.6 764.8l-537.6 0c-28.8 0-57.6-25.6-64-54.4l-96-566.4c-9.6-54.4-60.8-96-115.2-96l-22.4 0c-12.8 0-25.6 12.8-25.6 25.6 0 12.8 12.8 25.6 25.6 25.6l22.4 0c28.8 0 57.6 25.6 64 54.4l96 566.4c9.6 54.4 60.8 96 115.2 96l537.6 0c12.8 0 25.6-12.8 25.6-25.6C931.2 777.6 921.6 764.8 905.6 764.8z" p-id="2045" fill="#666666"></path><path d="M880 179.2l-572.8 0c-12.8 0-25.6 12.8-25.6 25.6 0 12.8 12.8 25.6 25.6 25.6l572.8 0c25.6 0 38.4 16 32 41.6l-70.4 281.6c-6.4 32-41.6 57.6-73.6 60.8l-396.8 28.8c-12.8 0-25.6 12.8-22.4 28.8 0 12.8 12.8 25.6 28.8 22.4l396.8-28.8c54.4-3.2 105.6-48 118.4-99.2l70.4-281.6C976 230.4 937.6 179.2 880 179.2z" p-id="2046" fill="#666666"></path></svg>