<?xml version="1.0" standalone="no"?><!DOCTYPE svg PUBLIC "-//W3C//DTD SVG 1.1//EN" "http://www.w3.org/Graphics/SVG/1.1/DTD/svg11.dtd"><svg t="1502954826919" class="icon" style="" viewBox="0 0 1024 1024" version="1.1" xmlns="http://www.w3.org/2000/svg" p-id="1208" xmlns:xlink="http://www.w3.org/1999/xlink" width="48" height="48"><defs><style type="text/css"></style></defs><path d="M838.2236444444444 170.24189629629632H183.55714761007408c-37.72654356859259 0-66.57625414162963 28.849710573037036-66.57625414162963 66.57625414162963v550.3636991241481c0 37.72654356859259 28.849710573037036 66.57625414162963 66.57625414162963 66.57625414162963h654.6664968343704c37.72654356859259 0 66.57625414162963-28.849710573037036 66.57625414162963-66.57625414162963V236.81815043792596c0-35.50733562311111-31.06891851851852-66.57625414162963-66.57625414162963-66.57625414162963z m22.19208430933333 461.5953606731851H498.68474868622224c-8.876834209185184 0-17.75366720474074-6.657625050074073-17.75366720474074-17.75366720474074v-208.6055966340741c0-8.876834209185184 6.657625050074073-17.75366720474074 17.75366720474074-17.75366720474074h261.8665994619259c13.315251313777777 0 22.19208430933333-8.876834209185184 22.19208430933333-22.19208430933333s-8.876834209185184-22.19208430933333-22.19208430933333-22.19208552296296H498.68474868622224c-33.288126464 0-62.13783703703704 26.630501413925924-62.13783703703704 62.13783703703704v208.6055966340741c0 33.288126464 26.630501413925924 62.13783703703704 62.13783703703704 62.13783703703704h361.73098006755555v110.9604227602963c0 13.315251313777777-8.876834209185184 22.19208430933333-22.19208430933333 22.19208430933333H183.55714761007408c-13.315251313777777 0-22.19208430933333-8.876834209185184-22.19208552296296-22.19208430933333V236.81815043792596c0-13.315251313777777 8.876834209185184-22.19208430933333 22.19208552296296-22.19208430933333h654.6664968343704c13.315251313777777 0 22.19208430933333 8.876834209185184 22.19208430933333 22.19208430933333v395.0191065315555z" fill="#999999" p-id="1209"></path><path d="M580.7954620871111 438.7661208082963c-39.9457527277037 0-73.2338791917037 33.288126464-73.2338791917037 73.2338791917037s33.288126464 73.2338791917037 73.2338791917037 73.2338791917037c39.9457527277037 0 73.2338791917037-33.288126464 73.2338791917037-73.2338791917037s-33.288126464-73.2338791917037-73.2338791917037-73.2338791917037z m0 102.08358976474075c-15.53445925925926 0-28.849710573037036-13.315251313777777-28.84970935940741-28.849710573037036s13.315251313777777-28.849710573037036 28.84970935940741-28.849710573037036 28.849710573037036 13.315251313777777 28.849710573037036 28.849710573037036-13.315251313777777 28.849710573037036-28.849710573037036 28.849710573037036z" fill="#999999" p-id="1210"></path></svg>